<?xml version="1.0" encoding="utf-8"?>
<!-- Generator: Adobe Illustrator 25.0.1, SVG Export Plug-In . SVG Version: 6.00 Build 0)  -->
<svg version="1.1" id="Layer_1" xmlns="http://www.w3.org/2000/svg" xmlns:xlink="http://www.w3.org/1999/xlink" x="0px" y="0px"
	 viewBox="0 0 612 792" style="enable-background:new 0 0 612 792;" xml:space="preserve">
<style type="text/css">
	.st0{fill:#80B0C9;}
	.st1{fill:#BAD4E2;}
	.st2{fill:#E3EEF3;}
</style>
<path class="st0" d="M286.9,391.1c0.4-0.3,0.7-0.6,1.1-0.9c0.7-0.5,1.5-0.9,2.3-1.2c1.6-0.7,3.4-0.8,5.1-0.3c1.2,0.5,2.2,1.2,3,2.2
	c0.8,1,1.5,2,2.1,3.1c1.3,1.8,2.5,3.7,3.6,5.7c1.1,2,1.5,4.3,1.2,6.5c0,0.1-0.1,0.3-0.1,0.4s-0.2,0.2-0.3,0.3
	c-0.4,0.2-0.8-0.1-1-0.4c-1.4-1.3-2.7-2.8-3.8-4.3c-2.1-3.1-2.9-6.9-5.1-9.9c-0.2-0.3-0.4-0.6-0.7-0.8c-0.3-0.2-0.6-0.3-1-0.4
	c-0.3,0-0.6,0.1-0.9,0.1c-0.6,0-1.2-0.1-1.8-0.3c-1.6-0.2-3.1,0.8-4.6,1.5c-0.6,0.3-1.2,0.5-1.9,0.7c-1.1,0-2.3-0.3-3.2-0.9
	c-0.5-0.6,0.7-0.3,1.2-0.3C283.2,391.8,285.7,391.9,286.9,391.1z"/>
<path class="st0" d="M296.1,417.3c0.9,0,1.9-0.1,2.8-0.4l3.6-1.1c0.7-0.2,1.3-0.4,2-0.7c0.7-0.4,1.4-0.9,1.9-1.4
	c2.1-1.8,4.2-3.8,6.8-4.5c1.6-0.4,3.3-0.4,4.8-0.8c1.1-0.4,2.2-0.8,3.3-1.3c1-0.4,2-0.7,2.9-1.2c1.2-0.7,2.3-1.6,3.2-2.8
	c0.8-1.2,1.4-2.5,1.6-3.9c0-0.6,0.2-1.2,0.5-1.8c0.3-0.4,0.7-0.6,1-0.9c0.2-0.4,0.3-0.8,0.3-1.3c-0.1-0.4-0.3-0.8-0.6-1.1
	c-0.4-0.3-0.8-0.4-1.2-0.5c-0.4-0.1-0.9-0.1-1.3,0c-0.9,0.2-1.7,0.5-2.5,0.9c-1.7,0.7-3.4,1.5-4.9,2.6c-1.4,1-2.5,2.4-3.8,3.6
	c-2.9,2.6-6.9,4-9.1,7.2c-0.6,1.1-1.3,2.2-2,3.2c-1,0.9-2.1,1.6-3.4,2c-2.2,0.9-4.5,1.9-6.9,1.8c-0.7,0-1.6,0-2,0.6
	C293.1,415.3,295.7,417.2,296.1,417.3z"/>
<path class="st1" d="M283.6,390.8l5.7-2.1c1.7-0.6,3.5-1.2,5.2-0.5c0.4,0.2,0.7,0.4,1,0.8c0.5,0.8,0.4,1.8,0.9,2.6
	c0.5,0.8,1.6,1.2,2.3,1.9c0.3,0.4,0.6,0.7,0.8,1.2c1.9,3.2,3.6,6.6,5.1,10c0.1,0.3,0.2,0.6,0.2,0.9c-0.1,0.2-0.2,0.4-0.3,0.6
	c-0.2,0.2-0.3,0.3-0.5,0.4c-3.5,2-7.9,2.7-10.5,5.8c-0.8,0.9-1.3,2.3-0.5,3.2c0.1,0.1,0.3,0.3,0.5,0.3c0.2,0.1,0.4,0.1,0.6,0.1
	s0.4-0.1,0.6-0.2c0.2-0.1,0.3-0.2,0.5-0.4c0.2-0.3,0.3-0.6,0.5-0.9c0.6-1,1.9-1.2,3-1.3c2-0.2,4.2-0.6,5.6-2
	c0.4-0.5,0.9-0.9,1.5-1.1c0.6-0.1,1.2,0,1.9,0.1c1.5,0,2.6-1.1,3.8-2c2.5-1.8,5.6-2.4,8.2-4c1-0.6,1.9-1.3,2.8-1.8
	c3.1-1.9,6.9-3.1,9-6.1c0.2-0.3,0.4-0.7,0.5-1.1c0-0.4-0.1-0.7-0.3-1c-3.6-7.1-9.7-12.5-15.7-17.7c-0.2-0.2-0.5-0.4-0.8-0.5
	c-0.4-0.1-0.8-0.1-1.2,0c-0.4,0.1-0.7,0.3-1,0.6c-0.6,0.5-1,1.2-1.6,1.8c-0.7,0.5-1.5,0.9-2.3,1.1c-4.3,1.4-8.5,2.8-12.8,4
	c-0.5,0.1-0.9,0.3-1.3,0.6c-0.3,0.3-0.5,0.6-0.9,0.9c-0.9,0.8-2.4,0.5-3.5,1c-0.4,0.3-0.9,0.5-1.4,0.7c-0.5,0.1-1,0.1-1.5,0.1
	c-2.5,0-4.7,1.7-6.7,3.2c-0.4,0.2-0.7,0.6-0.8,1c-0.2,0.8,0.7,1.6,1.4,1.8c0.1-0.5,0.4-0.9,0.7-1.3S283.2,391,283.6,390.8z"/>
<path class="st2" d="M294.4,411.9c0.7-0.7,1.5-1.2,2.4-1.6c1.2-0.6,2.4-1.2,3.6-1.7c1.8-0.8,3.9-1.5,5.1-3.1
	c1.2-1.6,1.5-3.8,2.9-5.2c-0.4,0.9-0.7,1.9-0.8,2.9c0,0.3,0,0.7,0.3,0.8c0.3,0.1,0.6-0.1,0.8-0.4c0.9-0.8,2.1-1.3,3.3-1.4
	c0.1,0,0.2,0,0.3,0.1c0,0.1,0,0.2,0,0.2c-0.1,0.5-0.3,0.9-0.6,1.3c-1.1,1.8-2.2,3.6-4.1,4.5c-2.1,1-4.7,0.6-6.9,1.5
	c-0.8,0.4-1.7,0.8-2.4,1.4c-1.4,0.9-2.8,1.7-4.2,2.5c-0.7,0.4-1.2,0.8-1-0.3C293.5,412.9,293.8,412.3,294.4,411.9z"/>
<path class="st2" d="M299.7,389.2c0.1,1.8,0.4,3.7,0.9,5.4c-0.3-0.4-0.5-0.8-0.6-1.3c-0.4-1.3-0.6-2.6-0.5-4
	c0.1-0.7,0.3-1.3,0.6-1.9s0.8-1.1,1.4-1.4c-0.5,0.4-1,0.9-1.4,1.5C299.8,388,299.6,388.6,299.7,389.2z"/>
<path class="st2" d="M300.5,384.5c-1.4,0.1-2.7,0.6-3.7,1.6c-0.2,0.2-0.3,0.3-0.4,0.5c-0.1,0.2-0.2,0.4-0.2,0.7c-0.1,1.2,0,3.3,1,4
	c0.2-0.8-0.1-1.8,0.2-2.7C297.9,387,299.1,385.6,300.5,384.5z"/>
<path class="st2" d="M282.2,390.4c1.7-1,3.6-1.9,5.5-2.5c1-0.3,2-0.4,2.9-0.7c0.9-0.3,1.7-0.7,2.6-1c1.8-0.6,3.6-1.1,5.4-1.5
	c-1.4,0.5-2.7,1.1-4.1,1.5c-0.8,0.2-1.5,0.4-2.3,0.7c-1.2,0.5-2.3,1.3-3.5,1.8c-2,0.9-4.2,1.1-6.1,2.1c-0.7,0.3-1.3,0.9-1.2,1.6
	c-0.1-0.4-0.4-0.7-0.3-1.3C281.3,391.1,281.9,390.5,282.2,390.4z"/>
<path class="st0" d="M308.2,388.1c1.5-1.4,3.1-2.7,4.8-3.8c0.6,1.7,1.3,3.4,2,5.1c0,0.1,0.1,0.2,0.1,0.2c0.1,0.1,0.1,0.1,0.2,0.2
	c0.1,0,0.2,0,0.3,0c0.1,0,0.2-0.1,0.2-0.2c1.6-1.5,2.8-3.3,3.6-5.3c0.5,0.2,1,0.5,1.6,0.6c0.3,0.1,0.6,0.1,0.8,0
	c0.3-0.1,0.5-0.2,0.7-0.4c0.4-0.6,0-1.5-0.4-2.1c-1.5-2-3.3-3.8-5.3-5.3c-0.8-0.6-2.1-1.4-3.1-0.9c-1.4,0.6-1,2.2-1.2,3.4
	c-0.2,1.4-1.3,2.4-2.1,3.6C309.6,384.7,308.8,386.4,308.2,388.1z"/>
<path class="st0" d="M322.9,392.2c1.1-1.4,1.2-3.3,2.5-4.4c-0.6,1.6-0.8,3.4-0.6,5.1s0.7,3.4,1.6,4.8c0.3,0.5,0.7,1.3,0.2,1.7
	c-0.2,0.1-0.4,0.2-0.6,0.3c-2.5,0.7-4.5,2.6-6.6,4.1c-0.8,0.6-1.9,1.1-2.7,0.6c-1.7-1.1,0.4-5.2,0.9-6.7
	C318.4,394.9,321.3,394.3,322.9,392.2z"/>
<path class="st2" d="M305.9,389.6c-0.6,1.9,0.3,3.9,0.3,5.8c0,1-0.2,2.1-0.4,3.1c-0.2,1-0.4,2-0.6,2.9c-0.1-1.7,0-3.5,0.2-5.2
	C305.6,394,305.3,391.7,305.9,389.6z"/>
<path class="st2" d="M309.1,380c-0.2,0.6-0.6,1.1-1.2,1.3c-0.6,0.3-1.1,0.6-1.6,0.9c-0.4,0.3-0.7,0.8-1.1,1.1
	c-0.6,0.5-1.3,0.8-1.8,1.3c-0.5,0.6-0.8,1.4-1,2.2c0.1-1.6,1.3-2.4,2.3-3.5c0.6-0.7,1.4-1.4,2.1-1.9
	C307.1,381.2,309,380.3,309.1,380z"/>
</svg>
